<?xml version="1.0" encoding="utf-8"?>
<!-- Generator: Adobe Illustrator 16.0.0, SVG Export Plug-In . SVG Version: 6.00 Build 0)  -->
<!DOCTYPE svg PUBLIC "-//W3C//DTD SVG 1.1//EN" "http://www.w3.org/Graphics/SVG/1.1/DTD/svg11.dtd">
<svg version="1.1" id="Capa_1" xmlns="http://www.w3.org/2000/svg" xmlns:xlink="http://www.w3.org/1999/xlink" x="0px" y="0px"
	 width="90px" height="90px" viewBox="0 0 90 90" enable-background="new 0 0 90 90" xml:space="preserve">
<g>
	<path fill="#FFFFFF" d="M53.589,41c-0.41-0.471-0.91-0.832-1.499-1.083c-0.59-0.254-1.266-0.379-2.02-0.379h-2.635v10.928h2.635
		c0.754,0,1.43-0.125,2.02-0.379c0.589-0.253,1.089-0.614,1.499-1.085c0.408-0.471,0.722-1.042,0.938-1.72s0.326-1.438,0.326-2.286
		c0-0.84-0.109-1.599-0.326-2.276C54.311,42.044,53.997,41.471,53.589,41z"/>
	<path fill="#FFFFFF" d="M33.649,41.303c-0.133-0.398-0.266-0.832-0.398-1.3c-0.117,0.476-0.24,0.914-0.373,1.32
		c-0.131,0.402-0.256,0.753-0.373,1.05l-1.563,4.631h4.656l-1.578-4.654C33.904,42.052,33.78,41.705,33.649,41.303z"/>
	<path fill="#FFFFFF" d="M44.999,2.501C21.53,2.501,2.5,21.527,2.5,44.996c0,23.475,19.03,42.503,42.499,42.503
		c23.471,0,42.501-19.028,42.501-42.503C87.5,21.527,68.47,2.501,44.999,2.501z M24.196,46.886h-5.808V53.5h-3.965V36.504h11.269
		l-0.574,3.034h-6.729v4.303h5.808V46.886z M37.788,53.5l-1.293-3.814h-6.464L28.749,53.5h-4.084l6.579-16.996h4.037L41.86,53.5
		H37.788z M58.254,48.396c-0.425,1.037-1.021,1.937-1.792,2.694c-0.769,0.758-1.694,1.349-2.779,1.772
		c-1.086,0.424-2.288,0.637-3.612,0.637h-6.602V36.504h6.602c1.324,0,2.526,0.214,3.612,0.642c1.085,0.427,2.011,1.019,2.779,1.772
		c0.771,0.754,1.367,1.65,1.792,2.689c0.424,1.039,0.637,2.167,0.637,3.389C58.891,46.224,58.678,47.358,58.254,48.396z
		 M75.279,49.439c-0.338,0.87-0.822,1.62-1.452,2.253c-0.631,0.628-1.396,1.118-2.298,1.468c-0.902,0.352-1.917,0.525-3.046,0.525
		c-1.136,0-2.153-0.174-3.055-0.525c-0.904-0.35-1.669-0.84-2.298-1.468c-0.631-0.633-1.112-1.383-1.446-2.253
		c-0.334-0.871-0.502-1.827-0.502-2.87V36.504h3.943v10.054c0,0.6,0.074,1.135,0.227,1.604c0.152,0.471,0.371,0.871,0.66,1.203
		c0.286,0.328,0.638,0.582,1.054,0.757c0.418,0.176,0.891,0.262,1.417,0.262c0.529,0,1.002-0.086,1.418-0.262
		c0.417-0.175,0.769-0.425,1.056-0.753c0.287-0.326,0.508-0.725,0.658-1.195c0.152-0.47,0.229-1.005,0.229-1.604V36.504h3.941
		v10.065C75.785,47.612,75.617,48.568,75.279,49.439z"/>
</g>
</svg>
