<?xml version="1.0" encoding="utf-8"?>
<!-- Generator: Adobe Illustrator 16.0.0, SVG Export Plug-In . SVG Version: 6.00 Build 0)  -->
<!DOCTYPE svg PUBLIC "-//W3C//DTD SVG 1.1//EN" "http://www.w3.org/Graphics/SVG/1.1/DTD/svg11.dtd">
<svg version="1.1" id="Capa_1" xmlns="http://www.w3.org/2000/svg" xmlns:xlink="http://www.w3.org/1999/xlink" x="0px" y="0px"
	 width="90px" height="90px" viewBox="0 0 90 90" enable-background="new 0 0 90 90" xml:space="preserve">
<g>
	<path fill="#FFFFFF" d="M38.584,46.829c-0.199-0.172-0.461-0.305-0.788-0.398c-0.326-0.094-0.738-0.141-1.236-0.141h-2.752v4.236
		h2.775c0.521,0,0.947-0.066,1.279-0.199c0.327-0.133,0.587-0.304,0.772-0.513c0.188-0.209,0.316-0.447,0.387-0.713
		c0.07-0.264,0.105-0.531,0.105-0.805c0-0.31-0.043-0.589-0.123-0.839C38.922,47.208,38.783,46.999,38.584,46.829z"/>
	<path fill="#FFFFFF" d="M37.038,43.562c0.352-0.063,0.648-0.171,0.892-0.327c0.244-0.155,0.432-0.369,0.561-0.642
		c0.129-0.272,0.191-0.615,0.191-1.027c0-0.404-0.051-0.741-0.15-1.009c-0.102-0.267-0.256-0.484-0.467-0.647
		c-0.21-0.163-0.476-0.28-0.8-0.35c-0.32-0.07-0.705-0.105-1.148-0.105h-2.309v4.199h2.052
		C36.296,43.655,36.688,43.624,37.038,43.562z"/>
	<path fill="#FFFFFF" d="M68.154,43.562c0.349-0.063,0.646-0.171,0.892-0.327s0.434-0.369,0.561-0.642
		c0.127-0.272,0.193-0.615,0.193-1.027c0-0.404-0.051-0.741-0.152-1.009c-0.102-0.267-0.258-0.484-0.467-0.647
		s-0.477-0.28-0.799-0.35c-0.323-0.07-0.706-0.105-1.149-0.105h-2.31v4.199h2.054C67.41,43.655,67.805,43.624,68.154,43.562z"/>
	<path fill="#FFFFFF" d="M44.999,2.501C21.53,2.501,2.5,21.527,2.5,44.996c0,23.475,19.03,42.503,42.499,42.503
		c23.471,0,42.501-19.028,42.501-42.503C87.5,21.527,68.47,2.501,44.999,2.501z M27.387,39.538h-6.731v4.305h5.81v3.043h-5.81V53.5
		h-3.967V36.505h11.268L27.387,39.538z M42.602,50.397c-0.279,0.621-0.69,1.164-1.229,1.627c-0.541,0.462-1.207,0.825-2.001,1.085
		c-0.793,0.26-1.7,0.391-2.718,0.391h-6.788V36.505h6.251c1.176,0,2.175,0.108,2.999,0.326s1.495,0.525,2.019,0.921
		c0.52,0.397,0.897,0.879,1.136,1.447c0.238,0.568,0.355,1.202,0.355,1.901c0,0.38-0.055,0.749-0.164,1.102
		c-0.109,0.354-0.279,0.684-0.512,0.992c-0.233,0.307-0.534,0.589-0.897,0.845c-0.367,0.256-0.805,0.478-1.319,0.666
		c1.12,0.273,1.948,0.711,2.484,1.317c0.537,0.607,0.807,1.393,0.807,2.356C43.023,49.102,42.883,49.775,42.602,50.397z
		 M56.63,53.016c-1.019,0.447-2.233,0.67-3.639,0.67c-1.292,0-2.448-0.219-3.471-0.658c-1.023-0.439-1.89-1.044-2.601-1.819
		s-1.257-1.692-1.64-2.753c-0.381-1.062-0.57-2.216-0.57-3.459c0-0.947,0.109-1.823,0.332-2.624
		c0.223-0.802,0.527-1.523,0.916-2.164c0.388-0.642,0.851-1.206,1.388-1.692c0.535-0.486,1.116-0.894,1.743-1.225
		c0.627-0.33,1.286-0.577,1.978-0.74c0.691-0.164,1.392-0.245,2.101-0.245c1.017,0,2.017,0.17,2.996,0.512
		c0.98,0.343,1.871,0.868,2.673,1.576l-1.866,2.437c-0.602-0.412-1.22-0.725-1.862-0.939c-0.641-0.214-1.276-0.32-1.905-0.32
		c-0.609,0-1.179,0.104-1.716,0.314s-1.01,0.537-1.418,0.98c-0.407,0.443-0.731,1.007-0.968,1.691
		c-0.236,0.685-0.355,1.499-0.355,2.438c0,0.928,0.127,1.731,0.385,2.415c0.258,0.683,0.602,1.253,1.032,1.71
		c0.432,0.453,0.928,0.793,1.486,1.019c0.562,0.227,1.147,0.34,1.763,0.34c0.639,0,1.271-0.117,1.901-0.352
		c0.631-0.233,1.228-0.593,1.796-1.085l2.075,1.983C58.5,51.905,57.649,52.568,56.63,53.016z M73.718,50.397
		c-0.279,0.621-0.689,1.164-1.23,1.627c-0.54,0.462-1.208,0.825-2.001,1.085c-0.792,0.26-1.698,0.391-2.717,0.391h-6.79V36.505
		h6.253c1.173,0,2.173,0.108,2.997,0.326c0.825,0.218,1.499,0.525,2.019,0.921c0.521,0.397,0.901,0.879,1.138,1.447
		c0.236,0.568,0.355,1.202,0.355,1.901c0,0.38-0.053,0.749-0.162,1.102c-0.109,0.354-0.281,0.684-0.516,0.992
		c-0.232,0.307-0.531,0.589-0.897,0.845c-0.363,0.256-0.805,0.478-1.316,0.666c1.119,0.273,1.946,0.711,2.483,1.317
		c0.537,0.607,0.805,1.393,0.805,2.356C74.138,49.102,73.997,49.775,73.718,50.397z"/>
	<path fill="#FFFFFF" d="M69.7,46.829c-0.199-0.172-0.461-0.305-0.787-0.398c-0.328-0.094-0.739-0.141-1.237-0.141h-2.753v4.236
		h2.776c0.521,0,0.946-0.066,1.276-0.199c0.332-0.133,0.59-0.304,0.777-0.513s0.314-0.447,0.385-0.713
		c0.068-0.264,0.104-0.531,0.104-0.805c0-0.31-0.039-0.589-0.121-0.839S69.897,46.999,69.7,46.829z"/>
</g>
</svg>
