<?xml version="1.0" encoding="utf-8"?>
<!-- Generator: Adobe Illustrator 16.0.0, SVG Export Plug-In . SVG Version: 6.00 Build 0)  -->
<!DOCTYPE svg PUBLIC "-//W3C//DTD SVG 1.1//EN" "http://www.w3.org/Graphics/SVG/1.1/DTD/svg11.dtd">
<svg version="1.1" id="Capa_2" xmlns="http://www.w3.org/2000/svg" xmlns:xlink="http://www.w3.org/1999/xlink" x="0px" y="0px"
	 width="196.447px" height="36.46px" viewBox="0 0 196.447 36.46" enable-background="new 0 0 196.447 36.46" xml:space="preserve">
<g>
	<g>
		<g>
			<g>
				<path fill="#FFFFFF" d="M48.417,5.298v3.021h3.93v1.776h-3.93v4.359h-2.274V3.529h7.091l-0.316,1.769H48.417z"/>
				<path fill="#FFFFFF" d="M64.229,14.454h-2.336l-0.913-2.582h-4.352l-0.912,2.582h-2.333l4.269-10.925h2.311L64.229,14.454z
					 M60.432,10.307L59.25,6.962c-0.071-0.175-0.144-0.379-0.222-0.617c-0.076-0.235-0.15-0.493-0.222-0.768
					c-0.069,0.283-0.146,0.541-0.221,0.78c-0.078,0.238-0.152,0.445-0.222,0.622l-1.175,3.328L60.432,10.307L60.432,10.307
					L60.432,10.307z"/>
				<path fill="#FFFFFF" d="M72.569,6.173c-0.406-0.28-0.828-0.494-1.265-0.64c-0.437-0.147-0.868-0.216-1.294-0.216
					c-0.416,0-0.813,0.069-1.184,0.216c-0.375,0.146-0.704,0.368-0.983,0.67c-0.282,0.3-0.505,0.682-0.672,1.143
					c-0.163,0.463-0.248,1.009-0.248,1.643c0,0.632,0.088,1.181,0.264,1.647c0.177,0.466,0.411,0.854,0.707,1.16
					c0.298,0.308,0.64,0.534,1.026,0.681c0.386,0.148,0.79,0.224,1.211,0.224c0.442,0,0.884-0.08,1.328-0.238
					c0.446-0.157,0.859-0.388,1.246-0.697l1.181,1.094c-0.252,0.316-0.525,0.584-0.824,0.805c-0.3,0.221-0.618,0.397-0.954,0.532
					c-0.336,0.131-0.689,0.229-1.057,0.29c-0.37,0.06-0.753,0.09-1.147,0.09c-0.833,0-1.58-0.145-2.236-0.435
					c-0.658-0.288-1.212-0.682-1.665-1.185c-0.452-0.501-0.796-1.094-1.035-1.772c-0.238-0.68-0.358-1.411-0.358-2.194
					c0-0.813,0.133-1.564,0.395-2.246c0.264-0.682,0.634-1.271,1.111-1.765c0.477-0.494,1.048-0.88,1.713-1.157
					c0.666-0.276,1.4-0.413,2.204-0.413c0.779,0,1.467,0.123,2.071,0.368c0.602,0.246,1.115,0.568,1.542,0.964L72.569,6.173z"/>
				<path fill="#FFFFFF" d="M79.631,12.648c0.365,0,0.696-0.064,0.986-0.186c0.291-0.122,0.539-0.297,0.739-0.523
					c0.2-0.226,0.354-0.501,0.459-0.82c0.106-0.323,0.157-0.683,0.157-1.085V3.529h2.258v6.503c0,0.662-0.105,1.27-0.318,1.824
					c-0.214,0.555-0.518,1.034-0.914,1.436c-0.397,0.402-0.881,0.715-1.447,0.94c-0.567,0.227-1.207,0.34-1.92,0.34
					c-0.712,0-1.354-0.114-1.924-0.34c-0.569-0.225-1.05-0.539-1.447-0.94c-0.395-0.402-0.703-0.881-0.916-1.436
					c-0.213-0.554-0.32-1.163-0.32-1.824V3.529h2.258v6.503c0,0.402,0.056,0.763,0.159,1.085c0.106,0.319,0.258,0.595,0.458,0.82
					c0.201,0.226,0.448,0.401,0.739,0.523C78.929,12.585,79.26,12.648,79.631,12.648z"/>
				<path fill="#FFFFFF" d="M93.026,12.618l-0.323,1.837h-6.316V3.529h2.257v9.087h4.382L93.026,12.618L93.026,12.618z"/>
				<path fill="#FFFFFF" d="M101.81,5.352h-3.026v9.102h-2.266V5.352h-3.193V3.529h8.803L101.81,5.352z"/>
				<path fill="#FFFFFF" d="M112.902,14.454h-2.336l-0.91-2.582h-4.354l-0.91,2.582h-2.336l4.273-10.925h2.31L112.902,14.454z
					 M109.11,10.307l-1.184-3.344c-0.069-0.175-0.145-0.379-0.221-0.617c-0.078-0.235-0.153-0.493-0.224-0.768
					c-0.069,0.283-0.143,0.541-0.22,0.78c-0.079,0.24-0.153,0.445-0.223,0.622l-1.176,3.328L109.11,10.307L109.11,10.307
					L109.11,10.307z"/>
				<path fill="#FFFFFF" d="M123.706,8.99c0,0.795-0.133,1.53-0.404,2.201c-0.269,0.669-0.647,1.247-1.137,1.728
					c-0.49,0.482-1.079,0.858-1.766,1.129c-0.687,0.271-1.449,0.408-2.288,0.408h-4.201V3.532h4.201c0.84,0,1.602,0.134,2.288,0.407
					c0.688,0.27,1.276,0.649,1.766,1.134c0.489,0.484,0.868,1.059,1.137,1.728C123.573,7.464,123.706,8.196,123.706,8.99z
					 M121.387,8.99c0-0.575-0.074-1.089-0.227-1.546c-0.15-0.454-0.365-0.84-0.648-1.159c-0.279-0.316-0.623-0.559-1.029-0.73
					c-0.402-0.169-0.861-0.256-1.372-0.256h-1.929v7.388h1.929c0.511,0,0.969-0.085,1.372-0.254c0.405-0.167,0.75-0.411,1.029-0.73
					c0.28-0.318,0.497-0.706,0.648-1.164C121.313,10.081,121.387,9.565,121.387,8.99z"/>
				<path fill="#FFFFFF" d="M138.74,8.99c0,0.795-0.134,1.53-0.404,2.201c-0.267,0.669-0.646,1.247-1.138,1.728
					c-0.488,0.482-1.076,0.858-1.766,1.129c-0.686,0.271-1.449,0.408-2.289,0.408h-4.2V3.532h4.2c0.841,0,1.603,0.134,2.289,0.407
					c0.689,0.27,1.277,0.649,1.766,1.134c0.491,0.484,0.871,1.059,1.138,1.728C138.606,7.464,138.74,8.196,138.74,8.99z
					 M136.421,8.99c0-0.575-0.075-1.089-0.228-1.546c-0.149-0.454-0.365-0.84-0.647-1.159c-0.28-0.316-0.623-0.559-1.028-0.73
					c-0.403-0.169-0.863-0.256-1.374-0.256h-1.925v7.388h1.925c0.511,0,0.97-0.085,1.374-0.254c0.407-0.167,0.748-0.411,1.028-0.73
					c0.28-0.318,0.496-0.706,0.647-1.164C136.346,10.081,136.421,9.565,136.421,8.99z"/>
				<path fill="#FFFFFF" d="M142.676,5.298v2.811h3.643v1.707h-3.643v2.868h4.841l-0.317,1.771H140.4V3.529h7.123l-0.314,1.769
					H142.676z"/>
				<path fill="#FFFFFF" d="M5.395,30.957H3.121V20.033h2.274V30.957z"/>
				<path fill="#FFFFFF" d="M17.192,20.033v10.924h-2.251v-2.92l0.536,0.607l-6.008-5.713l0.383-0.098
					c0.016,0.174,0.025,0.35,0.034,0.52c0.009,0.172,0.012,0.33,0.012,0.475v7.13H7.684V20.033h1.588l6.182,5.918l-0.452,0.127
					c-0.021-0.189-0.035-0.375-0.044-0.551c-0.011-0.18-0.016-0.35-0.016-0.508v-4.986H17.192L17.192,20.033z"/>
				<path fill="#FFFFFF" d="M24.797,25.394h3.75v4.509c-0.564,0.411-1.159,0.711-1.791,0.896c-0.634,0.184-1.297,0.279-1.99,0.279
					c-0.849,0-1.634-0.131-2.361-0.397c-0.724-0.262-1.351-0.636-1.877-1.121c-0.526-0.483-0.94-1.07-1.238-1.764
					c-0.299-0.688-0.449-1.456-0.449-2.306c0-0.862,0.145-1.64,0.433-2.326c0.288-0.688,0.688-1.271,1.198-1.752
					c0.508-0.485,1.112-0.854,1.811-1.111c0.697-0.258,1.458-0.387,2.281-0.387c0.743,0,1.459,0.111,2.149,0.338
					s1.31,0.595,1.864,1.105l-1.048,1.387c-0.422-0.302-0.885-0.535-1.395-0.699c-0.505-0.168-1.018-0.251-1.535-0.251
					c-0.449,0-0.883,0.069-1.296,0.208c-0.414,0.137-0.781,0.355-1.101,0.655c-0.318,0.297-0.573,0.681-0.762,1.147
					c-0.192,0.468-0.286,1.029-0.286,1.688c0,0.566,0.078,1.083,0.237,1.55c0.157,0.468,0.386,0.868,0.688,1.205
					c0.3,0.338,0.67,0.597,1.109,0.782c0.441,0.189,0.942,0.279,1.512,0.279c0.625,0,1.226-0.137,1.797-0.406v-1.838h-1.7v-1.668h0
					V25.394z"/>
				<path fill="#FFFFFF" d="M32.663,21.801v2.81h3.643v1.707h-3.643v2.869h4.843l-0.318,1.77h-6.798V20.033h7.121l-0.317,1.769
					H32.663z"/>
				<path fill="#FFFFFF" d="M48.54,20.033v10.924h-2.25v-2.92l0.535,0.607l-6.008-5.713l0.384-0.098
					c0.015,0.174,0.025,0.35,0.032,0.52c0.009,0.172,0.013,0.33,0.013,0.475v7.13h-2.211V20.033h1.588l6.18,5.918l-0.45,0.127
					c-0.021-0.189-0.037-0.375-0.046-0.551c-0.011-0.18-0.015-0.35-0.015-0.508v-4.986H48.54L48.54,20.033z"/>
				<path fill="#FFFFFF" d="M53.103,30.957h-2.271V20.033h2.271V30.957z"/>
				<path fill="#FFFFFF" d="M57.667,21.801v2.81h3.643v1.707h-3.643v2.869h4.84l-0.316,1.77h-6.8V20.033h7.124l-0.316,1.769H57.667z
					"/>
				<path fill="#FFFFFF" d="M72.747,30.957H70.15l-2.348-3.787c-0.083-0.13-0.173-0.227-0.28-0.286s-0.259-0.091-0.459-0.091h-0.769
					v4.165h-2.257V20.033h3.433c0.546,0,1.078,0.052,1.593,0.15c0.513,0.102,0.969,0.273,1.37,0.517
					c0.399,0.243,0.719,0.569,0.963,0.978c0.244,0.408,0.365,0.925,0.365,1.541c0,0.381-0.054,0.735-0.164,1.06
					c-0.11,0.327-0.267,0.624-0.467,0.89c-0.2,0.267-0.444,0.495-0.727,0.693c-0.283,0.195-0.598,0.354-0.944,0.476
					c0.159,0.089,0.3,0.188,0.418,0.296c0.122,0.107,0.229,0.238,0.325,0.396L72.747,30.957z M67.456,25.207
					c0.3,0,0.58-0.037,0.837-0.111c0.26-0.07,0.481-0.182,0.668-0.33c0.184-0.149,0.329-0.336,0.437-0.566
					c0.103-0.225,0.157-0.498,0.157-0.814s-0.057-0.58-0.169-0.788c-0.113-0.208-0.267-0.374-0.458-0.5
					c-0.193-0.125-0.415-0.212-0.668-0.269c-0.25-0.053-0.513-0.078-0.789-0.078h-1.176v3.457H67.456z"/>
				<path fill="#FFFFFF" d="M78.273,16.925l-2.432,2.152c-0.056,0.046-0.108,0.081-0.159,0.11c-0.05,0.027-0.101,0.047-0.155,0.064
					c-0.05,0.014-0.11,0.022-0.173,0.03c-0.061,0.003-0.131,0.006-0.206,0.006h-1.505l1.505-2.039
					c0.056-0.076,0.109-0.134,0.161-0.178c0.055-0.041,0.111-0.074,0.173-0.099c0.065-0.021,0.135-0.034,0.216-0.04
					c0.08-0.005,0.173-0.006,0.278-0.006L78.273,16.925L78.273,16.925z M76.089,30.957h-2.272V20.033h2.272V30.957z"/>
				<path fill="#FFFFFF" d="M87.94,30.957h-2.336l-0.91-2.58H80.34l-0.91,2.58h-2.334l4.271-10.924h2.312L87.94,30.957z
					 M84.145,26.81l-1.183-3.344c-0.071-0.176-0.146-0.381-0.222-0.619c-0.079-0.234-0.15-0.491-0.223-0.766
					c-0.069,0.279-0.145,0.539-0.224,0.778c-0.078,0.239-0.152,0.446-0.22,0.622l-1.175,3.327L84.145,26.81L84.145,26.81z"/>
				<path fill="#FFFFFF" d="M103.674,33.05h-2.731l-1.927-2.148c-0.489,0.119-0.996,0.176-1.521,0.176
					c-0.84,0-1.604-0.142-2.292-0.427c-0.688-0.282-1.276-0.671-1.77-1.17c-0.491-0.497-0.871-1.085-1.141-1.769
					c-0.266-0.684-0.402-1.424-0.402-2.221c0-0.799,0.135-1.537,0.402-2.219c0.271-0.678,0.649-1.266,1.141-1.764
					c0.494-0.496,1.082-0.887,1.77-1.172c0.688-0.283,1.451-0.426,2.292-0.426c0.838,0,1.597,0.143,2.289,0.426
					c0.685,0.282,1.273,0.673,1.763,1.175c0.49,0.499,0.87,1.089,1.139,1.768c0.266,0.683,0.4,1.419,0.4,2.212
					c0,0.481-0.048,0.943-0.147,1.383c-0.097,0.438-0.239,0.85-0.424,1.232c-0.187,0.385-0.412,0.739-0.685,1.065
					c-0.273,0.325-0.578,0.612-0.919,0.859L103.674,33.05z M94.204,25.49c0,0.578,0.074,1.094,0.225,1.549
					c0.152,0.452,0.368,0.84,0.653,1.155c0.283,0.315,0.628,0.558,1.035,0.726c0.406,0.169,0.865,0.251,1.379,0.251
					c0.509,0,0.968-0.082,1.373-0.251c0.404-0.168,0.747-0.41,1.031-0.726c0.283-0.315,0.5-0.702,0.652-1.155
					c0.151-0.455,0.225-0.971,0.225-1.549c0-0.572-0.074-1.084-0.225-1.537c-0.151-0.457-0.369-0.843-0.652-1.16
					c-0.284-0.32-0.626-0.563-1.031-0.732c-0.404-0.166-0.863-0.25-1.373-0.25c-0.514,0-0.973,0.084-1.379,0.25
					c-0.407,0.17-0.751,0.412-1.035,0.732c-0.284,0.317-0.501,0.703-0.653,1.16C94.278,24.406,94.204,24.919,94.204,25.49z"/>
				<path fill="#FFFFFF" d="M109.214,29.151c0.365,0,0.696-0.062,0.987-0.186c0.29-0.123,0.536-0.298,0.738-0.523
					c0.199-0.226,0.354-0.499,0.458-0.819c0.105-0.322,0.157-0.684,0.157-1.085v-6.505h2.259v6.504c0,0.662-0.106,1.271-0.319,1.825
					c-0.212,0.554-0.519,1.032-0.917,1.436c-0.396,0.402-0.877,0.714-1.443,0.94c-0.569,0.225-1.208,0.339-1.92,0.339
					c-0.713,0-1.355-0.114-1.925-0.339c-0.57-0.228-1.053-0.538-1.45-0.94c-0.396-0.403-0.7-0.88-0.913-1.436
					c-0.214-0.555-0.321-1.163-0.321-1.825v-6.504h2.256v6.504c0,0.402,0.057,0.763,0.158,1.086c0.107,0.32,0.259,0.594,0.459,0.819
					c0.2,0.226,0.446,0.4,0.74,0.523C108.513,29.089,108.845,29.151,109.214,29.151z"/>
				<path fill="#FFFFFF" d="M120.426,16.925l-2.43,2.152c-0.058,0.046-0.11,0.081-0.159,0.11c-0.05,0.027-0.101,0.047-0.156,0.064
					c-0.052,0.014-0.11,0.022-0.173,0.03c-0.062,0.003-0.131,0.006-0.205,0.006h-1.506l1.506-2.039
					c0.055-0.076,0.107-0.134,0.159-0.178c0.056-0.041,0.11-0.074,0.174-0.099c0.064-0.021,0.134-0.034,0.214-0.04
					c0.082-0.005,0.174-0.006,0.28-0.006L120.426,16.925L120.426,16.925z M118.242,30.957h-2.272V20.033h2.272V30.957z"/>
				<path fill="#FFFFFF" d="M132.577,20.033v10.924h-1.996v-6.709c0-0.141,0.005-0.291,0.011-0.451
					c0.009-0.16,0.022-0.323,0.042-0.49l-3.378,6.417h-1.387l-3.397-6.438c0.017,0.176,0.028,0.346,0.039,0.51
					c0.012,0.159,0.015,0.313,0.015,0.453v6.708h-1.996V20.033h2.28l3.247,6.18c0.095,0.176,0.184,0.357,0.266,0.541
					c0.085,0.186,0.164,0.377,0.238,0.572c0.077-0.199,0.155-0.396,0.24-0.586c0.08-0.191,0.171-0.375,0.265-0.549l3.215-6.158
					H132.577L132.577,20.033z"/>
				<path fill="#FFFFFF" d="M137.133,30.957h-2.274V20.033h2.274V30.957z"/>
				<path fill="#FFFFFF" d="M146.752,22.675c-0.405-0.28-0.825-0.494-1.263-0.641c-0.437-0.146-0.87-0.217-1.297-0.217
					c-0.415,0-0.811,0.07-1.185,0.217s-0.703,0.367-0.981,0.67c-0.281,0.301-0.505,0.683-0.67,1.144
					c-0.165,0.462-0.25,1.01-0.25,1.642c0,0.633,0.088,1.182,0.264,1.648c0.177,0.468,0.412,0.854,0.709,1.16
					c0.297,0.308,0.638,0.534,1.024,0.682c0.386,0.147,0.789,0.222,1.211,0.222c0.443,0,0.884-0.078,1.329-0.236
					c0.444-0.157,0.858-0.389,1.246-0.696l1.181,1.092c-0.25,0.315-0.523,0.585-0.823,0.806c-0.3,0.222-0.616,0.398-0.952,0.532
					c-0.337,0.132-0.69,0.229-1.059,0.289c-0.368,0.06-0.753,0.091-1.146,0.091c-0.834,0-1.581-0.146-2.237-0.434
					c-0.658-0.289-1.211-0.684-1.665-1.188c-0.45-0.499-0.794-1.093-1.034-1.771c-0.24-0.681-0.358-1.41-0.358-2.195
					c0-0.813,0.133-1.563,0.395-2.244c0.263-0.684,0.634-1.271,1.111-1.766c0.477-0.494,1.048-0.881,1.713-1.156
					c0.666-0.276,1.398-0.412,2.203-0.412c0.778,0,1.467,0.123,2.07,0.368c0.602,0.245,1.117,0.567,1.544,0.964L146.752,22.675z"/>
				<path fill="#FFFFFF" d="M158.908,30.957h-2.335l-0.914-2.58h-4.351l-0.912,2.58h-2.333l4.27-10.924h2.311L158.908,30.957z
					 M155.11,26.81l-1.18-3.344c-0.072-0.176-0.146-0.381-0.226-0.619c-0.075-0.234-0.149-0.491-0.22-0.766
					c-0.069,0.279-0.146,0.539-0.223,0.778c-0.078,0.239-0.153,0.446-0.223,0.622l-1.175,3.327L155.11,26.81L155.11,26.81z"/>
			</g>
		</g>
		<g>
			<path fill="#FFFFFF" d="M9.826,3.55h3.832v0.047l-0.33,0.699c-0.052,0.104-0.093,0.207-0.122,0.307
				c-0.026,0.099-0.043,0.204-0.043,0.319v5.015c0,0.674-0.108,1.298-0.328,1.867c-0.221,0.571-0.537,1.058-0.952,1.468
				c-0.413,0.41-0.912,0.729-1.502,0.957c-0.587,0.23-1.252,0.345-1.993,0.345s-1.405-0.115-1.997-0.345
				c-0.593-0.228-1.094-0.546-1.505-0.957c-0.413-0.408-0.727-0.897-0.947-1.468c-0.218-0.568-0.329-1.192-0.329-1.867V5.007
				c0-0.141-0.014-0.266-0.04-0.373C3.545,4.523,3.504,4.412,3.45,4.299l-0.329-0.7V3.55h3.832v0.047l-0.328,0.7
				C6.568,4.401,6.528,4.504,6.501,4.604C6.475,4.703,6.46,4.808,6.46,4.923v4.94c0,0.681,0.165,1.217,0.494,1.61
				c0.329,0.395,0.807,0.587,1.438,0.587c0.635,0,1.117-0.193,1.441-0.587c0.326-0.394,0.489-0.93,0.489-1.61V5.007
				c0-0.141-0.017-0.266-0.042-0.373c-0.026-0.111-0.066-0.223-0.121-0.336l-0.33-0.7V3.55H9.826z"/>
			<path fill="#FFFFFF" d="M18.331,14.454h-3.719v-0.045l0.328-0.701c0.051-0.105,0.091-0.205,0.118-0.304
				c0.03-0.096,0.046-0.205,0.046-0.322V5.005c0-0.141-0.014-0.264-0.04-0.371c-0.028-0.112-0.071-0.223-0.125-0.337l-0.329-0.7
				V3.55h2.515l5.317,4.77c-0.027-0.204-0.048-0.397-0.058-0.578c-0.011-0.181-0.017-0.364-0.017-0.547V5.005
				c0-0.141-0.015-0.264-0.042-0.371c-0.025-0.112-0.066-0.223-0.123-0.337l-0.325-0.7V3.55h3.715v0.047l-0.326,0.699
				c-0.055,0.114-0.097,0.224-0.123,0.336c-0.027,0.108-0.04,0.232-0.04,0.372v8.077c0,0.117,0.012,0.228,0.04,0.322
				c0.026,0.098,0.068,0.198,0.123,0.304l0.326,0.701v0.045h-3.561v-0.045l0.278-0.701c0.038-0.106,0.07-0.205,0.097-0.304
				c0.024-0.096,0.036-0.205,0.036-0.322v-1.083l-4.7-4.215c0.038,0.218,0.063,0.438,0.077,0.664
				c0.012,0.224,0.019,0.454,0.019,0.693v3.86c0,0.139,0.014,0.264,0.042,0.371c0.027,0.11,0.068,0.221,0.121,0.336l0.33,0.701
				v0.045L18.331,14.454L18.331,14.454z"/>
			<path fill="#FFFFFF" d="M26.681,14.409l0.326-0.701c0.057-0.114,0.099-0.226,0.125-0.336c0.027-0.107,0.041-0.233,0.041-0.371
				V5.005c0-0.141-0.012-0.264-0.041-0.371c-0.026-0.112-0.068-0.223-0.125-0.337l-0.326-0.7V3.55h3.829v0.047l-0.326,0.699
				c-0.055,0.104-0.098,0.207-0.123,0.307c-0.027,0.098-0.04,0.203-0.04,0.319v7.184h2.974c0.236,0,0.46-0.021,0.67-0.06
				c0.207-0.039,0.443-0.131,0.709-0.268l0.729-0.389l0.038,0.021l-0.596,3.041h-7.862L26.681,14.409L26.681,14.409L26.681,14.409z"
				/>
			<path fill="#FFFFFF" d="M38.969,8.932c0-0.271,0.05-0.532,0.154-0.771c0.106-0.24,0.246-0.451,0.424-0.63
				c0.182-0.18,0.389-0.32,0.63-0.423c0.242-0.105,0.499-0.158,0.771-0.158c0.273,0,0.531,0.053,0.773,0.158
				c0.239,0.104,0.451,0.244,0.627,0.423c0.18,0.179,0.322,0.39,0.425,0.63c0.104,0.239,0.157,0.5,0.157,0.771
				c0,0.274-0.053,0.532-0.157,0.771c-0.104,0.239-0.246,0.45-0.425,0.631c-0.177,0.178-0.389,0.319-0.627,0.421
				c-0.242,0.106-0.5,0.159-0.773,0.159c-0.272,0-0.529-0.053-0.771-0.159c-0.242-0.103-0.449-0.244-0.63-0.421
				c-0.179-0.18-0.319-0.391-0.424-0.631C39.019,9.463,38.969,9.206,38.969,8.932z"/>
		</g>
	</g>
</g>
</svg>
