<?xml version="1.0" encoding="utf-8"?>
<!-- Generator: Adobe Illustrator 16.0.0, SVG Export Plug-In . SVG Version: 6.00 Build 0)  -->
<!DOCTYPE svg PUBLIC "-//W3C//DTD SVG 1.1//EN" "http://www.w3.org/Graphics/SVG/1.1/DTD/svg11.dtd">
<svg version="1.1" id="Capa_2" xmlns="http://www.w3.org/2000/svg" xmlns:xlink="http://www.w3.org/1999/xlink" x="0px" y="0px"
	 width="90px" height="90px" viewBox="0 0 90 90" enable-background="new 0 0 90 90" xml:space="preserve">
<g>
	<g>
		<path fill="#FFFFFF" d="M59.434,41.422c-0.418-0.478-0.93-0.843-1.534-1.098c-0.606-0.255-1.296-0.383-2.066-0.383
			c-0.781,0-1.474,0.127-2.085,0.383c-0.607,0.255-1.119,0.62-1.54,1.098c-0.417,0.478-0.739,1.062-0.961,1.749
			c-0.222,0.689-0.332,1.463-0.332,2.323c0,0.869,0.111,1.646,0.332,2.334c0.223,0.691,0.544,1.271,0.961,1.75
			c0.421,0.478,0.933,0.843,1.54,1.093c0.611,0.25,1.304,0.377,2.085,0.377c0.771,0,1.459-0.127,2.066-0.377
			c0.604-0.25,1.116-0.615,1.534-1.093c0.416-0.479,0.736-1.059,0.96-1.75c0.225-0.688,0.335-1.465,0.335-2.334
			c0-0.859-0.111-1.634-0.335-2.323C60.17,42.483,59.85,41.9,59.434,41.422z"/>
		<path fill="#FFFFFF" d="M45.25,2C21.229,2,1.75,21.475,1.75,45.496C1.75,69.521,21.229,89,45.25,89
			c24.023,0,43.501-19.479,43.501-43.504C88.751,21.475,69.275,2,45.25,2z M37.581,39.906h-6.888v4.407h5.943v3.115h-5.943v6.77
			h-4.061V36.804h11.534L37.581,39.906z M44.154,54.197H40.12V36.804h4.034V54.197z M60.957,57.458l-2.938-3.297
			c-0.677,0.15-1.403,0.229-2.184,0.229c-1.354,0-2.585-0.229-3.699-0.68c-1.116-0.456-2.071-1.081-2.862-1.882
			c-0.792-0.8-1.404-1.74-1.838-2.821c-0.435-1.085-0.651-2.255-0.651-3.513c0-1.254,0.218-2.426,0.651-3.51
			c0.434-1.083,1.046-2.021,1.838-2.817c0.79-0.795,1.746-1.42,2.862-1.874c1.112-0.453,2.345-0.68,3.699-0.68
			c1.354,0,2.584,0.228,3.697,0.687c1.106,0.457,2.059,1.084,2.846,1.879c0.786,0.795,1.399,1.733,1.831,2.817
			c0.435,1.084,0.651,2.251,0.651,3.498c0,0.748-0.076,1.466-0.231,2.155c-0.157,0.688-0.38,1.337-0.669,1.94
			c-0.291,0.605-0.648,1.167-1.075,1.684c-0.425,0.519-0.907,0.975-1.45,1.374l4.403,4.812L60.957,57.458L60.957,57.458z"/>
	</g>
</g>
</svg>
